<svg height="512" viewBox="0 0 56 56" width="512" xmlns="http://www.w3.org/2000/svg"><path d="M23.2 11.932c.219.034.443.047.666.061.95-.021 1.88.273 2.644.836.159.11.324.21.494.3.138.083.3.119.459.1a.753.753 0 00.009-.345c-.118-.398-.26-.789-.426-1.169a5.794 5.794 0 01-.187-3.181A4.95 4.95 0 0027 7.093c-1.325.7-2.553 2.3-3.843 3.5-.64.6-.71.849-.694.947.014.121.305.326.737.392zM33 28.86a5.352 5.352 0 00-1.135-2.769 8.057 8.057 0 01-1.2-2.806 10.007 10.007 0 00-7.652 9.381c2.479-1.174 4.844-.625 7.153-1.2 1.363-.333 2.771-1.337 2.834-2.606z"/><path d="M32.31 17.035a7.343 7.343 0 001.784-6.8C33.488 8 31.716 5.8 32.28 2.915A21.386 21.386 0 0021.5 0c-.226 0-.446.027-.671.034a40.673 40.673 0 01-2.557 5.925 4.743 4.743 0 01-2.313 2.419c-1.525.609-3.153-.2-4.04.177a1.446 1.446 0 00-.754 1.083 3.466 3.466 0 00.233 1.8 6.858 6.858 0 002.427 3.186c1.362.97 3.4 1.669 4.343 3.518 1.037 2 .233 4.349-.865 5.883-1.749 2.405-3.564 3.053-5.169 6.5-.306.66-1.093 2.36-2.644 2.36a2.415 2.415 0 01-2.283-2.273 8.464 8.464 0 01.172-2.17 5.42 5.42 0 00-1.042-3.9c-1.009-1.338-2.883-2.681-2.851-4.849a6.142 6.142 0 011.5-3.38c.648-.925.889-1.595.759-2.106-.154-.615-.88-1.107-1.608-1.559-.565-.35-1.13-.7-1.7-1.056a21.446 21.446 0 0018.055 31.357A15.963 15.963 0 0132.31 17.035zm-10.519-7.9c1.183-1.1 2.574-2.883 4.19-3.764a1.949 1.949 0 012.246-.042c1.047.794.813 2.628.58 3.65a3.745 3.745 0 00.121 2.067c.211.475.38.968.507 1.472a2.349 2.349 0 01-.7 2.252c-.767.57-1.8.63-2.627.152-.506-.253-.974-.639-1.318-.771-.626-.13-1.261-.21-1.9-.238a2.675 2.675 0 01-2.408-2.05 3.233 3.233 0 011.309-2.732zm14.233.573a9.374 9.374 0 01-1.242 7.4 15.913 15.913 0 018.187 3.4 21.334 21.334 0 00-8.786-16.36c.006.33.048.658.127.979.361 1.473 1.262 2.92 1.714 4.581z"/><path d="M7.681 13.718a4.708 4.708 0 01-1.06 3.743 4.86 4.86 0 00-1.135 2.272c-.018 1.207 1.428 2.251 2.449 3.606a7.439 7.439 0 011.429 5.345 8.482 8.482 0 00-.173 1.686c.01.203.11.39.272.513.021 0 .292.019.857-1.2 1.779-3.81 3.795-4.672 5.361-6.823.749-1.046 1.332-2.6.709-3.8-.624-1.219-2.319-1.8-3.726-2.8a8.868 8.868 0 01-3.144-4.131 5.406 5.406 0 01-.322-2.852 3.434 3.434 0 011.927-2.555c1.542-.666 3.181.165 4.1-.2a3.105 3.105 0 001.283-1.505 38.719 38.719 0 002.14-4.8 21.507 21.507 0 00-15.2 9.654c.58.362 1.16.725 1.739 1.084a4.974 4.974 0 012.494 2.763zm37.302 29.849c-.443.5-.915.973-1.416 1.416l1.943 1.943 1.416-1.416zm10.431 9.019l-6.363-6.364-2.829 2.828 6.364 6.364a2.047 2.047 0 002.828 0 2 2 0 000-2.828zM33 19c-7.732 0-14 6.268-14 14s6.268 14 14 14 14-6.268 14-14c-.008-7.729-6.271-13.992-14-14zm0 26c-6.627 0-12-5.373-12-12s5.373-12 12-12 12 5.373 12 12c-.007 6.624-5.376 11.993-12 12z"/><path d="M33 23c-.118 0-.233.014-.35.018a6.2 6.2 0 00.873 1.951A6.963 6.963 0 0135 28.958c-.118 2.363-2.27 3.938-4.349 4.453-2.768.684-5.372-.009-7.467 1.467A10 10 0 1033 23z"/></svg>