<svg height="512pt" viewBox="-1 0 511 512" width="512pt" xmlns="http://www.w3.org/2000/svg"><path d="M216.07 157.5a7.56 7.56 0 007.559-7.559v-8.453a7.56 7.56 0 00-15.117 0v8.453a7.557 7.557 0 007.558 7.559zm70.09 0a7.557 7.557 0 007.559-7.559v-8.453a7.557 7.557 0 10-15.114 0v8.453a7.556 7.556 0 007.555 7.559zm-62.95 203.04c0 15.136 13.677 27.448 30.485 27.448 16.825 0 30.512-12.312 30.512-27.449 0-15.117-13.687-27.422-30.512-27.422-16.808 0-30.484 12.305-30.484 27.422zm30.485-12.306c8.489 0 15.395 5.52 15.395 12.305 0 6.8-6.906 12.332-15.395 12.332-8.472 0-15.367-5.531-15.367-12.332 0-6.785 6.895-12.305 15.367-12.305zm0 0"/><path d="M504.664 426.992l-14.5-20.691c-6.074-8.676-14.101-20.133-25.894-23.746 4.015-10.008 2.39-22.035-4.86-35.836l-.039-.074c-.023-.047-.043-.09-.066-.133l-30.09-56.801c-17.219-32.543-32.488-55.742-72.363-57.895-15.993-.84-26.223-3.707-37.825-17.082-1.129-1.28-2.945-3.168-4.761-5.02 14.613-14.21 25.789-31.855 30.808-49.394 5.68-1.3 11.274-4.437 15.969-9.062 6.094-6.004 9.59-13.61 9.59-20.863v-8.97c0-9.179-7.465-16.644-16.64-16.644h-5.997v-9.094c11.031-8.996 17.942-20.289 20.04-32.867 2.046-12.273-.665-25.164-7.626-36.297C346.56 4.383 316.086-9.28 284.645 7.45c-11.38 6.059-25.063 4.371-39.551 2.586-15.364-1.894-31.246-3.851-46.54 2.871-14.874 6.547-26.335 16.856-34.062 30.645-7.469 13.324-11.258 29.625-11.258 48.441v12.79h-5.996c-9.175 0-16.64 7.464-16.64 16.644v8.969c0 7.257 3.496 14.867 9.597 20.87 4.692 4.626 10.285 7.762 15.957 9.06 5.38 18.82 17.844 37.753 34.04 52.445-.7.742-1.337 1.43-1.84 2.007-6.407 7.387-12.403 11.559-19.2 13.953-5.468 1.93-11.457 2.711-18.59 3.082-39.878 2.122-55.156 25.336-72.386 57.895l-30.059 56.8c-.027.052-.05.102-.078.153-.008.016-.02.035-.027.055-7.54 14.328-8.992 26.742-4.371 36.976-10.09 4.496-17.262 14.707-22.801 22.606l-14.5 20.695c-3.465 4.941-5.4 10.265-5.77 15.441-.039.324-.07.652-.07.992v45.453C.5 501.629 10.871 512 23.617 512h463.707c12.75 0 23.121-10.371 23.121-23.121v-42.934c0-.007-.004-.015-.004-.023.426-6.23-1.53-12.867-5.777-18.93zM150.801 140.5c-3.184-3.14-5.086-6.914-5.086-10.105v-8.97c0-.827.7-1.527 1.523-1.527h5.996v20.903c0 .594.036 1.195.051 1.797a22.223 22.223 0 01-2.484-2.098zm298.394 238.52c-4.785 7.94-20.644 17.402-68.996 17.437l4.348-43.059c28.55-6.425 47.09-5.765 62.41 2.176 4.863 9.95 5.621 17.832 2.238 23.446zm-95.203-259.122c.824 0 1.524.7 1.524 1.528v8.969c0 3.187-1.899 6.96-5.082 10.097a22.365 22.365 0 01-2.489 2.102c.02-.598.051-1.2.051-1.793v-20.903zM204.641 26.742c11.488-5.047 24.66-3.422 38.601-1.707 16.184 1.996 32.91 4.059 48.504-4.242 24.356-12.957 46.024-1.957 55.848 13.746 8.402 13.438 10.52 34.688-10.813 50.754-56.722 21.379-78.695 13.047-101.957 4.23-12.562-4.761-25.402-9.628-43.144-9.628-6.825 0-14.383.722-22.922 2.449 1.781-20.68 10.027-44.223 35.883-55.602zm-34.957 125.696a7.77 7.77 0 00-.168-.86c-.75-3.652-1.164-7.265-1.164-10.777V97.89c28.558-6.567 43.722-.825 61.113 5.77 12.898 4.886 26.722 10.124 46.644 10.124 14.832 0 33.047-2.906 56.77-11.027V140.8c0 3.402-.39 6.902-1.102 10.445a7.564 7.564 0 00-.285 1.402c-6.152 27.41-32.039 57.157-61.039 67.97-14.61 5.452-24.976 5.468-39.598.054-29.117-10.824-55.105-40.723-61.171-68.234zm30.074 72.261a76.064 76.064 0 012.273-2.441c7.426 5.222 15.36 9.531 23.567 12.586 9 3.332 17.004 4.996 25.004 4.996 8.05 0 16.093-1.688 25.132-5.063 9.512-3.543 18.657-8.777 27.063-15.172 1.86 1.891 3.844 3.93 4.851 5.075 5.438 6.273 10.848 10.793 16.442 14.054-13.05 14.621-38.418 24.239-67.563 25.086-31.816.93-59.215-8.504-73.418-24.953 5.668-3.27 11.145-7.82 16.649-14.168zM91.535 296.777c17.281-32.652 28.817-48.218 59.824-49.867 6.07-.316 11.703-.96 17.051-2.25 15.555 21.43 47.145 34.34 83.922 34.34 1.535 0 3.082-.023 4.633-.066 36.21-1.059 66.836-14.063 81.808-34.332 5.415 1.328 11.122 1.984 17.274 2.308 31.008 1.676 42.539 17.23 59.808 49.871l20.68 39.04c-13.812-3.067-29.867-2.446-50.39 1.769l3.277-32.477c.476-4.765-1.094-9.41-4.418-13.078a19.107 19.107 0 00-14.137-6.265h-97.972a7.56 7.56 0 000 15.117h97.972c1.07 0 2.219.508 2.93 1.293.433.476.633.96.586 1.425L363.03 415.988c-.199 2.024-1.386 4.2-3.511 4.2H147.87c-2.25 0-3.316-2.512-3.484-4.208l-6.996-69.085a7.615 7.615 0 00-.082-.844l-4.297-42.434c-.047-.469.148-.949.586-1.43.715-.789 1.863-1.3 2.925-1.3H237.88a7.56 7.56 0 000-15.117H136.523a19.098 19.098 0 00-14.132 6.273c-3.325 3.672-4.895 8.312-4.422 13.082l3.289 32.46c-20.528-4.21-36.578-4.831-50.383-1.769zm-31.074 58.797c15.293-7.941 33.828-8.601 62.394-2.18l4.36 43.063c-39.23-.027-57.078-6.258-64.969-12.848a6.868 6.868 0 00-.648-.566c-1.496-1.348-2.598-2.703-3.391-4.02-3.379-5.613-2.621-13.496 2.254-23.449zm209.34 112.95h212.597c4.77 0 9.125-.829 12.93-2.372v22.727c0 4.414-3.59 8.004-8 8.004H23.618c-4.415 0-8-3.59-8-8.004V466.12c3.823 1.563 8.214 2.402 13.019 2.402l206.265-.117a7.554 7.554 0 007.551-7.562 7.555 7.555 0 00-7.555-7.555h-.003l-206.262.117c-5.93 0-10.36-1.976-12.153-5.426-.503-.972-.785-2.042-.863-3.18v-1.269c.156-2.449 1.203-5.152 3.102-7.863l14.5-20.691c5.496-7.84 12.332-17.582 19.906-18.407l1.184-.02c13.66 10.09 37.804 15.024 73.16 15.024h1.277l.598 5.918c1.031 10.32 8.824 17.813 18.523 17.813H359.52c9.718 0 17.523-7.492 18.554-17.805l.598-5.926h1.25c35.371 0 59.52-4.937 73.183-15.035 1.805.012 3.98.024 4.618.035 7.672.707 14.535 10.512 20.058 18.399l14.5 20.695c3.16 4.504 3.977 8.996 2.246 12.324-1.789 3.442-6.21 5.414-12.132 5.414H269.8a7.557 7.557 0 00-7.559 7.559 7.557 7.557 0 007.559 7.558zm0 0"/></svg>